<?xml version="1.0" encoding="utf-8"?>
<!-- Generator: Adobe Illustrator 24.1.2, SVG Export Plug-In . SVG Version: 6.00 Build 0)  -->
<svg version="1.1" id="Layer_1" xmlns="http://www.w3.org/2000/svg" xmlns:xlink="http://www.w3.org/1999/xlink" x="0px" y="0px"
	 viewBox="0 0 612 792" style="enable-background:new 0 0 612 792;" xml:space="preserve">
<style type="text/css">
	.st0{fill:#FFFFFF;}
</style>
<path class="st0" d="M357.75,352.69c-3.17,6.02-7.58,13.69-11.23,21.15c-6.54,13.35-12.71,26.34-12.71,37.85
	c0,6.45,3.59,10.04,8.29,10.04c3.68,0,5.25-2.39,5.8-2.39c0.46,0,0.64,0.46,0.64,0.83c0,1.57-6.45,9.21-13.35,9.21
	c-7.55,0-13.91-6.81-13.91-17.13c0-18.6,17.96-49.45,23.02-57l-0.46-0.09c-7.09,8.56-33.61,49.82-37.39,53.04
	c-2.39,2.03-4.14,3.13-8.57,3.13c-2.49,0-4.7-0.64-4.7-1.84c0-1.29,1.29-2.39,2.39-4.33c1.11-2.03,16.21-40.61,18.88-48.35h-0.83
	c-8.2,11.05-29.84,55.07-53.69,55.07c-11.24,0-17.68-8.38-17.68-19.98c0-15.29,15.19-30.02,29.56-30.02
	c7.64,0,12.62,6.63,12.62,13.44c0,8.93-9.76,20.26-18.97,20.26c-3.78,0-5.89-0.74-5.89-1.2c0-0.55,1.84-0.55,3.5-1.38
	c1.56-0.83,11.97-8.2,11.97-18.33c0-4.88-2.21-7.92-5.99-7.92c-9.02,0-18.51,14.09-18.51,23.67c0,8.29,4.42,12.8,12.25,12.8
	c12.98,0,25.23-19.52,33.61-32.97c6.08-9.67,15.19-23.21,22.01-29.19c2.67-2.39,6.72-2.21,7.55-2.21c2.86,0,5.34,0.46,5.34,3.59
	c0,4.51-14.83,39.41-17.59,45.95l0.55,0.37c7.75-12.42,26.96-41.18,35.14-47.6c-11.69-12.86-28.55-20.94-47.3-20.94
	c-35.28,0-63.89,28.6-63.89,63.89c0,35.28,28.6,63.89,63.89,63.89s63.89-28.6,63.89-63.89C366.02,372.68,363,361.97,357.75,352.69z"
	/>
<g>
	<path class="st0" d="M52.11,345.69l8.16,21.7h0.1l8.21-21.7h9.5v3.89l-1.58,0.14c-0.96,0.1-1.42,0.66-1.39,1.68l1.2,21.98
		l2.98,0.14v4.08H67.71v-3.89l1.73-0.14c0.86-0.06,1.28-0.48,1.25-1.25l-0.91-16.94h-0.1l-7.39,19.15h-4.56l-7.3-18.96h-0.1
		l-0.96,17.81l3.12,0.14v4.08H41.16v-3.89l1.73-0.14c0.74-0.06,1.14-0.5,1.2-1.3l1.3-22.32l-2.93-0.19v-4.08H52.11z"/>
	<path class="st0" d="M104.67,377.61h-22.8v-3.89l1.58-0.14c0.93-0.1,1.39-0.54,1.39-1.34v-22.32l-2.74-0.14v-4.08h21.98v7.97
		L99.2,354v-1.92c0-0.54-0.08-0.93-0.24-1.15c-0.16-0.22-0.54-0.34-1.15-0.34h-7.1v8.21h11.09v4.9H90.7v8.98h7.73
		c0.58,0,0.94-0.12,1.1-0.36c0.16-0.24,0.24-0.63,0.24-1.18v-2.4l4.9,0.34V377.61z"/>
	<path class="st0" d="M130.92,377.61h-22.8v-3.89l1.58-0.14c0.93-0.1,1.39-0.54,1.39-1.34v-22.32l-2.74-0.14v-4.08h11.57v3.89
		l-1.58,0.14c-0.93,0.1-1.39,0.61-1.39,1.54v21.41h7.97c0.45,0,0.74-0.12,0.89-0.36c0.14-0.24,0.22-0.63,0.22-1.18v-3.36l4.9,0.34
		V377.61z"/>
	<path class="st0" d="M156.8,377.61H134v-3.89l1.58-0.14c0.93-0.1,1.39-0.54,1.39-1.34v-22.32l-2.74-0.14v-4.08h21.98v7.97
		l-4.9,0.34v-1.92c0-0.54-0.08-0.93-0.24-1.15c-0.16-0.22-0.54-0.34-1.15-0.34h-7.1v8.21h11.09v4.9h-11.09v8.98h7.73
		c0.58,0,0.94-0.12,1.1-0.36c0.16-0.24,0.24-0.63,0.24-1.18v-2.4l4.9,0.34V377.61z"/>
	<path class="st0" d="M161.98,372.24l7.73-22.37l-3.02-0.29v-3.89h10.99l9.79,27.7h0.05l2.74,0.14v4.08h-12.38v-3.89l1.82-0.14
		c0.54-0.06,0.91-0.19,1.1-0.38s0.21-0.54,0.05-1.06l-1.01-2.98H168.6l-1.44,4.22l2.88,0.14v4.08h-11.09v-3.89l1.58-0.14
		C161.21,373.52,161.69,373.07,161.98,372.24z M174.22,351.07l-4.46,13.68h8.93l-4.32-13.68H174.22z"/>
	<path class="st0" d="M214.44,372v-8.3h-13.58v9.7l2.78,0.14v4.08h-11.62v-3.89l1.58-0.14c0.93-0.1,1.39-0.54,1.39-1.34v-22.32
		l-2.74-0.14v-4.08h11.62v3.89l-1.58,0.14c-0.51,0.06-0.88,0.2-1.1,0.41c-0.22,0.21-0.34,0.6-0.34,1.18v7.44h13.58v-8.83l-2.74-0.14
		v-4.08h11.62v3.89l-1.58,0.14c-0.93,0.1-1.39,0.61-1.39,1.54v22.13l2.74,0.14v4.08h-11.62v-3.89l1.58-0.14
		c0.48-0.06,0.83-0.2,1.06-0.41C214.33,372.96,214.44,372.57,214.44,372z"/>
	<path class="st0" d="M82.13,402.6c0,2.6-0.89,4.6-2.66,6s-4.32,2.1-7.62,2.1h-3.02v10.11h-2.99v-25.7h6.66
		C78.91,395.11,82.13,397.61,82.13,402.6z M68.82,408.14h2.69c2.65,0,4.56-0.43,5.75-1.28s1.78-2.23,1.78-4.11
		c0-1.7-0.56-2.96-1.67-3.8s-2.85-1.25-5.2-1.25h-3.34V408.14z"/>
	<path class="st0" d="M107.02,420.81h-2.99v-12.09H90.49v12.09H87.5v-25.7h2.99v10.93h13.54v-10.93h2.99V420.81z"/>
	<path class="st0" d="M120.6,407.96l6.86-12.85h3.23l-8.58,15.73v9.97h-3.02v-9.83l-8.56-15.87h3.27L120.6,407.96z"/>
	<path class="st0" d="M148.73,413.97c0,2.26-0.82,4.03-2.46,5.29s-3.87,1.9-6.68,1.9c-3.05,0-5.39-0.39-7.03-1.18v-2.88
		c1.05,0.45,2.2,0.8,3.45,1.05s2.47,0.39,3.69,0.39c1.99,0,3.49-0.38,4.5-1.13s1.51-1.81,1.51-3.16c0-0.89-0.18-1.62-0.54-2.19
		s-0.96-1.09-1.79-1.57s-2.11-1.03-3.82-1.63c-2.39-0.86-4.1-1.87-5.12-3.04s-1.54-2.7-1.54-4.59c0-1.98,0.74-3.56,2.23-4.73
		c1.49-1.17,3.46-1.76,5.91-1.76c2.55,0,4.9,0.47,7.05,1.41l-0.93,2.6c-2.12-0.89-4.18-1.34-6.19-1.34c-1.58,0-2.82,0.34-3.71,1.02
		s-1.34,1.62-1.34,2.83c0,0.89,0.16,1.62,0.49,2.19s0.88,1.09,1.66,1.56s1.97,1,3.58,1.57c2.7,0.96,4.55,1.99,5.56,3.09
		S148.73,412.22,148.73,413.97z"/>
	<path class="st0" d="M153.98,420.81v-25.7h2.99v25.7H153.98z"/>
	<path class="st0" d="M175.03,397.42c-2.82,0-5.05,0.94-6.69,2.82s-2.45,4.46-2.45,7.73c0,3.36,0.79,5.96,2.36,7.8
		s3.82,2.75,6.74,2.75c1.79,0,3.84-0.32,6.13-0.97v2.62c-1.78,0.67-3.98,1-6.59,1c-3.79,0-6.71-1.15-8.76-3.45s-3.08-5.56-3.08-9.79
		c0-2.65,0.5-4.97,1.49-6.96s2.42-3.53,4.29-4.6c1.87-1.08,4.07-1.62,6.6-1.62c2.7,0,5.05,0.49,7.07,1.48l-1.27,2.57
		C178.92,397.87,176.97,397.42,175.03,397.42z"/>
	<path class="st0" d="M202.89,420.81l-3.2-8.17h-10.3l-3.16,8.17h-3.02l10.16-25.8h2.51l10.11,25.8H202.89z M198.76,409.95
		l-2.99-7.96c-0.39-1.01-0.79-2.24-1.2-3.71c-0.26,1.12-0.63,2.36-1.11,3.71l-3.02,7.96H198.76z"/>
	<path class="st0" d="M209.51,420.81v-25.7h2.99v22.99h11.34v2.71H209.51z"/>
</g>
<g>
	<path class="st0" d="M391.49,345.69l8.16,21.7h0.1l8.21-21.7h9.5v3.89l-1.58,0.14c-0.96,0.1-1.42,0.66-1.39,1.68l1.2,21.98
		l2.98,0.14v4.08h-11.57v-3.89l1.73-0.14c0.86-0.06,1.28-0.48,1.25-1.25l-0.91-16.94h-0.1l-7.39,19.15h-4.56l-7.3-18.96h-0.1
		l-0.96,17.81l3.12,0.14v4.08h-11.33v-3.89l1.73-0.14c0.74-0.06,1.14-0.5,1.2-1.3l1.3-22.32l-2.93-0.19v-4.08H391.49z"/>
	<path class="st0" d="M429.27,351.31v15.94c0,2.24,0.54,3.82,1.61,4.73c1.07,0.91,2.61,1.37,4.61,1.37s3.55-0.5,4.66-1.49
		c1.1-0.99,1.66-2.45,1.66-4.37v-17.57l-2.78-0.14v-4.08h11.38v3.89l-1.58,0.14c-0.93,0.1-1.39,0.58-1.39,1.44v17.14
		c0,3.1-1.09,5.54-3.26,7.3c-2.18,1.76-5.18,2.64-9.02,2.64s-6.74-0.86-8.71-2.57c-1.97-1.71-2.95-4.42-2.95-8.14v-17.62l-2.78-0.14
		v-4.08h11.62v3.89l-1.58,0.14c-0.51,0.06-0.88,0.2-1.1,0.41C429.38,350.34,429.27,350.73,429.27,351.31z"/>
	<path class="st0" d="M452.79,377.61v-3.89l1.58-0.14c0.93-0.1,1.39-0.54,1.39-1.34v-22.32l-2.74-0.14v-4.08h13.1
		c3.71,0,6.56,0.69,8.54,2.06c1.98,1.38,2.98,3.63,2.98,6.77c0,2.18-0.57,3.97-1.7,5.38c-1.14,1.41-2.49,2.43-4.06,3.07
		c1.15,0.42,2.06,1.39,2.74,2.93l3.46,7.54l2.74,0.1v4.08h-11.86v-3.89l1.39-0.14c0.74-0.1,1.1-0.38,1.1-0.86
		c0-0.19-0.06-0.42-0.19-0.67l-2.26-4.8c-0.35-0.8-0.74-1.37-1.18-1.7c-0.43-0.34-1.05-0.5-1.85-0.5h-4.37v8.35l3.12,0.14v4.08
		H452.79z M461.62,360.48h4.18c3.94,0,5.9-1.76,5.9-5.28c0-2.02-0.52-3.33-1.56-3.94c-1.04-0.61-2.71-0.91-5.02-0.91h-3.5V360.48z"
		/>
	<path class="st0" d="M482.84,377.61v-3.89l1.58-0.14c0.93-0.1,1.39-0.54,1.39-1.34v-22.32l-2.74-0.14v-4.08h13.73
		c3.58,0,6.38,0.84,8.38,2.52c2,1.68,3,4.2,3,7.56c0,3.36-1.14,5.98-3.41,7.85c-2.27,1.87-5.28,2.81-9.02,2.81h-4.08v6.96l4.61,0.14
		v4.08H482.84z M491.67,361.77h3.46c4.67,0,7.01-1.9,7.01-5.71c0-2.3-0.6-3.83-1.8-4.58c-1.2-0.75-3.11-1.13-5.74-1.13h-2.93V361.77
		z"/>
	<path class="st0" d="M533.57,372v-8.3h-13.58v9.7l2.78,0.14v4.08h-11.62v-3.89l1.58-0.14c0.93-0.1,1.39-0.54,1.39-1.34v-22.32
		l-2.74-0.14v-4.08h11.62v3.89l-1.58,0.14c-0.51,0.06-0.88,0.2-1.1,0.41c-0.22,0.21-0.34,0.6-0.34,1.18v7.44h13.58v-8.83l-2.74-0.14
		v-4.08h11.62v3.89l-1.58,0.14c-0.93,0.1-1.39,0.61-1.39,1.54v22.13l2.74,0.14v4.08H530.6v-3.89l1.58-0.14
		c0.48-0.06,0.83-0.2,1.06-0.41C533.46,372.96,533.57,372.57,533.57,372z"/>
	<path class="st0" d="M554.45,372.24v-6.82l-8.16-15.5l-2.26-0.14v-4.08h11.71v3.89l-1.44,0.14c-0.51,0.03-0.84,0.22-0.98,0.58
		c-0.14,0.35-0.09,0.78,0.17,1.3l4.08,8.35h0.19l5.23-9.98l-2.4-0.19v-4.08h10.32v3.89l-1.44,0.14c-0.61,0.06-1.15,0.54-1.63,1.44
		l-7.54,14.26v7.97l3.74,0.14v4.08h-13.54v-3.89l2.54-0.14C553.99,373.52,554.45,373.07,554.45,372.24z"/>
	<path class="st0" d="M391.03,420.81h-2.99v-23.04h-8.14v-2.65h19.27v2.65h-8.14V420.81z"/>
	<path class="st0" d="M422.55,420.81h-2.99v-12.09h-13.54v12.09h-2.99v-25.7h2.99v10.93h13.54v-10.93h2.99V420.81z"/>
	<path class="st0" d="M443.93,420.81H429.6v-25.7h14.33v2.65h-11.34v8.28h10.65v2.64h-10.65v9.46h11.34V420.81z"/>
	<path class="st0" d="M452.61,410.12v10.69h-2.99v-25.7h7.05c3.15,0,5.48,0.6,6.99,1.81s2.26,3.02,2.26,5.45
		c0,3.4-1.72,5.7-5.17,6.89l6.98,11.55h-3.53l-6.22-10.69H452.61z M452.61,407.56h4.1c2.11,0,3.66-0.42,4.64-1.26
		s1.48-2.09,1.48-3.77c0-1.7-0.5-2.92-1.5-3.67c-1-0.75-2.61-1.12-4.83-1.12h-3.88V407.56z"/>
	<path class="st0" d="M488.03,420.81l-3.2-8.17h-10.3l-3.16,8.17h-3.02l10.16-25.8h2.51l10.11,25.8H488.03z M483.9,409.95
		l-2.99-7.96c-0.39-1.01-0.79-2.24-1.2-3.71c-0.26,1.12-0.63,2.36-1.11,3.71l-3.02,7.96H483.9z"/>
	<path class="st0" d="M510.95,402.6c0,2.6-0.89,4.6-2.66,6s-4.32,2.1-7.62,2.1h-3.02v10.11h-2.99v-25.7h6.66
		C507.74,395.11,510.95,397.61,510.95,402.6z M497.64,408.14h2.69c2.65,0,4.56-0.43,5.75-1.28s1.78-2.23,1.78-4.11
		c0-1.7-0.56-2.96-1.67-3.8s-2.85-1.25-5.2-1.25h-3.34V408.14z"/>
	<path class="st0" d="M522.87,407.96l6.86-12.85h3.23l-8.58,15.73v9.97h-3.02v-9.83l-8.56-15.87h3.27L522.87,407.96z"/>
</g>
</svg>
