<svg id="Layer_1" data-name="Layer 1" xmlns="http://www.w3.org/2000/svg" viewBox="0 0 127.78 127.78"><defs><style>.cls-1{fill:#192752;}</style></defs><path class="cls-1" d="M361.54,365c-3.17,6-7.58,13.69-11.24,21.16-6.53,13.35-12.7,26.34-12.7,37.85,0,6.44,3.59,10,8.28,10,3.69,0,5.25-2.39,5.81-2.39s.64.46.64.83c0,1.56-6.45,9.21-13.35,9.21-7.55,0-13.91-6.82-13.91-17.13,0-18.6,18-49.45,23-57l-.46-.1c-7.09,8.57-33.61,49.82-37.38,53-2.4,2-4.15,3.13-8.57,3.13-2.49,0-4.7-.65-4.7-1.84s1.29-2.4,2.4-4.33,16.21-40.61,18.88-48.35h-.83c-8.2,11.05-29.84,55.07-53.69,55.07-11.24,0-17.68-8.38-17.68-20,0-15.29,15.19-30,29.56-30,7.64,0,12.62,6.63,12.62,13.44,0,8.93-9.77,20.26-19,20.26-3.78,0-5.9-.74-5.9-1.2s1.84-.55,3.5-1.38,12-8.19,12-18.32c0-4.88-2.21-7.92-6-7.92-9,0-18.51,14.09-18.51,23.66,0,8.29,4.42,12.8,12.25,12.8,13,0,25.23-19.52,33.61-33,6.08-9.67,15.19-23.21,22-29.2,2.67-2.39,6.72-2.21,7.55-2.21,2.85,0,5.34.46,5.34,3.6,0,4.51-14.83,39.41-17.59,46l.55.37c7.76-12.43,27-41.19,35.15-47.6A64,64,0,1,0,361.54,365Z" transform="translate(-242.03 -332.56)"/></svg>