<svg xmlns="http://www.w3.org/2000/svg" viewBox="0 0 529.75 127.78"><defs><style>.cls-1{fill:#fff;}</style></defs><g id="Layer_2" data-name="Layer 2"><g id="Layer_1-2" data-name="Layer 1"><path class="cls-1" d="M316.58,32.47c-3.17,6-7.57,13.68-11.23,21.15C298.81,67,292.64,80,292.64,91.47c0,6.45,3.59,10,8.29,10,3.68,0,5.25-2.4,5.8-2.4s.65.47.65.83c0,1.57-6.45,9.21-13.36,9.21-7.55,0-13.9-6.81-13.9-17.13,0-18.6,18-49.45,23-57l-.46-.09c-7.09,8.56-33.61,49.82-37.39,53-2.39,2-4.14,3.13-8.56,3.13-2.49,0-4.7-.64-4.7-1.84s1.29-2.39,2.4-4.33,16.2-40.61,18.87-48.34h-.82c-8.2,11-29.84,55.07-53.69,55.07-11.24,0-17.68-8.38-17.68-20,0-15.28,15.19-30,29.56-30,7.64,0,12.61,6.63,12.61,13.45,0,8.93-9.76,20.26-19,20.26-3.77,0-5.89-.74-5.89-1.2s1.84-.55,3.5-1.38,12-8.2,12-18.33c0-4.88-2.21-7.92-6-7.92-9,0-18.51,14.09-18.51,23.67,0,8.29,4.42,12.8,12.25,12.8,13,0,25.23-19.52,33.61-33,6.08-9.67,15.2-23.21,22-29.19,2.67-2.4,6.73-2.21,7.55-2.21,2.86,0,5.35.46,5.35,3.59,0,4.51-14.83,39.41-17.59,46l.55.37c7.75-12.42,27-41.18,35.14-47.6a64,64,0,1,0,8.32,11.53Z"/><path class="cls-1" d="M10.94,25.47l8.16,21.7h.1l8.21-21.7h9.5v3.89l-1.58.14a1.42,1.42,0,0,0-1.39,1.68l1.2,22,3,.14v4.08H26.54V53.5l1.73-.14c.87-.06,1.28-.48,1.25-1.25l-.91-16.94h-.1L21.12,54.32H16.56l-7.3-19H9.17l-1,17.81,3.12.14v4.08H0V53.5l1.73-.14a1.24,1.24,0,0,0,1.2-1.3L4.22,29.74,1.3,29.55V25.47Z"/><path class="cls-1" d="M63.5,57.39H40.7V53.5l1.59-.14c.93-.1,1.39-.54,1.39-1.35V29.7l-2.74-.15V25.47h22v8l-4.9.33V31.85a2.07,2.07,0,0,0-.24-1.15c-.16-.22-.54-.33-1.15-.33h-7.1v8.2H60.62v4.9H49.54v9h7.72q.87,0,1.11-.36a2.19,2.19,0,0,0,.24-1.18v-2.4l4.89.34Z"/><path class="cls-1" d="M89.76,57.39H67V53.5l1.58-.14c.93-.1,1.4-.54,1.4-1.35V29.7l-2.74-.15V25.47H78.77v3.89l-1.59.14A1.38,1.38,0,0,0,75.79,31V52.45h8a1,1,0,0,0,.89-.36,2.45,2.45,0,0,0,.21-1.18V47.55l4.9.34Z"/><path class="cls-1" d="M115.63,57.39H92.83V53.5l1.58-.14c.93-.1,1.4-.54,1.4-1.35V29.7l-2.74-.15V25.47h22v8l-4.89.33V31.85a2.07,2.07,0,0,0-.24-1.15c-.16-.22-.55-.33-1.15-.33h-7.11v8.2h11.09v4.9H101.66v9h7.73c.58,0,.94-.12,1.1-.36a2.19,2.19,0,0,0,.24-1.18v-2.4l4.9.34Z"/><path class="cls-1" d="M120.81,52l7.73-22.36-3-.29V25.47h11l9.79,27.7h0l2.74.14v4.08H136.7V53.5l1.83-.14a1.81,1.81,0,0,0,1.1-.39c.19-.19.21-.54.05-1l-1-3H127.44L126,53.17l2.88.14v4.08H117.79V53.5l1.58-.14A1.69,1.69,0,0,0,120.81,52Zm12.24-21.16-4.46,13.68h8.93L133.2,30.85Z"/><path class="cls-1" d="M173.28,51.77v-8.3H159.69v9.7l2.79.14v4.08H150.86V53.5l1.59-.14c.92-.1,1.39-.54,1.39-1.35V29.7l-2.74-.15V25.47h11.62v3.89l-1.59.14a2,2,0,0,0-1.1.41,1.61,1.61,0,0,0-.34,1.18v7.44h13.59V29.7l-2.74-.15V25.47h11.62v3.89l-1.59.14A1.39,1.39,0,0,0,179.18,31V53.17l2.74.14v4.08H170.3V53.5l1.59-.14a1.82,1.82,0,0,0,1.05-.41A1.57,1.57,0,0,0,173.28,51.77Z"/><path class="cls-1" d="M41,82.38a7.21,7.21,0,0,1-2.66,6q-2.67,2.1-7.62,2.1h-3v10.11h-3V74.89h6.66Q41,74.89,41,82.38ZM27.65,87.92h2.69q4,0,5.75-1.29a4.7,4.7,0,0,0,1.78-4.11,4.46,4.46,0,0,0-1.67-3.8A8.77,8.77,0,0,0,31,77.48H27.65Z"/><path class="cls-1" d="M65.85,100.59h-3V88.5H49.33v12.09h-3V74.89h3V85.82H62.86V74.89h3Z"/><path class="cls-1" d="M79.44,87.74l6.85-12.85h3.24L81,90.62v10h-3V90.76L69.37,74.89h3.27Z"/><path class="cls-1" d="M107.56,93.75A6.3,6.3,0,0,1,105.1,99a10.63,10.63,0,0,1-6.68,1.9,16.66,16.66,0,0,1-7-1.18V96.88a18.75,18.75,0,0,0,7.14,1.44,7.43,7.43,0,0,0,4.5-1.13A3.72,3.72,0,0,0,104.54,94a4,4,0,0,0-.54-2.18,4.88,4.88,0,0,0-1.79-1.58,25.35,25.35,0,0,0-3.82-1.63,12.33,12.33,0,0,1-5.13-3A6.75,6.75,0,0,1,91.73,81,5.7,5.7,0,0,1,94,76.28a9.3,9.3,0,0,1,5.91-1.76,17.32,17.32,0,0,1,7,1.41l-.93,2.6a15.93,15.93,0,0,0-6.19-1.34,6,6,0,0,0-3.7,1A3.37,3.37,0,0,0,94.75,81a4.33,4.33,0,0,0,.49,2.19A4.68,4.68,0,0,0,96.9,84.8a21,21,0,0,0,3.58,1.57A14.09,14.09,0,0,1,106,89.46,6.07,6.07,0,0,1,107.56,93.75Z"/><path class="cls-1" d="M112.82,100.59V74.89h3v25.7Z"/><path class="cls-1" d="M133.86,77.19A8.4,8.4,0,0,0,127.17,80a11.39,11.39,0,0,0-2.45,7.72q0,5,2.36,7.8a8.44,8.44,0,0,0,6.75,2.75,22.82,22.82,0,0,0,6.13-1v2.62a18.84,18.84,0,0,1-6.59,1q-5.68,0-8.76-3.44t-3.09-9.79a15.51,15.51,0,0,1,1.49-7,10.67,10.67,0,0,1,4.29-4.6,13,13,0,0,1,6.6-1.62A15.82,15.82,0,0,1,141,76l-1.26,2.57A13.57,13.57,0,0,0,133.86,77.19Z"/><path class="cls-1" d="M161.72,100.59l-3.2-8.17h-10.3l-3.16,8.17h-3l10.16-25.8h2.51l10.11,25.8Zm-4.13-10.86-3-8c-.38-1-.78-2.24-1.19-3.7a33.65,33.65,0,0,1-1.11,3.7l-3,8Z"/><path class="cls-1" d="M168.35,100.59V74.89h3v23h11.34v2.71Z"/><path class="cls-1" d="M350.33,25.47l8.16,21.7h.1l8.2-21.7h9.51v3.89l-1.59.14a1.43,1.43,0,0,0-1.39,1.68l1.2,22,3,.14v4.08H365.93V53.5l1.73-.14c.86-.07,1.28-.48,1.25-1.25L368,35.17h-.09l-7.39,19.15H356l-7.3-19h-.1l-1,17.81,3.12.14v4.08H339.39V53.5l1.72-.14a1.23,1.23,0,0,0,1.2-1.3l1.3-22.32-2.93-.19V25.47Z"/><path class="cls-1" d="M388.1,31.09V47q0,3.36,1.61,4.73a6.93,6.93,0,0,0,4.61,1.37A6.76,6.76,0,0,0,399,51.63a5.58,5.58,0,0,0,1.65-4.37V29.69l-2.78-.14V25.47h11.38v3.89l-1.59.14a1.34,1.34,0,0,0-1.39,1.44V48.08A8.85,8.85,0,0,1,403,55.37Q399.73,58,394,58t-8.71-2.56c-2-1.71-2.95-4.43-2.95-8.14V29.69l-2.79-.14V25.47h11.62v3.89l-1.58.14a2,2,0,0,0-1.11.41A1.61,1.61,0,0,0,388.1,31.09Z"/><path class="cls-1" d="M411.63,57.39V53.5l1.58-.14c.93-.1,1.39-.55,1.39-1.35V29.69l-2.74-.14V25.47H425q5.56,0,8.54,2.06t3,6.77a8.33,8.33,0,0,1-1.7,5.38,10,10,0,0,1-4.06,3.07,5,5,0,0,1,2.74,2.93l3.45,7.53,2.74.1v4.08H427.8V53.5l1.39-.14q1.11-.15,1.11-.87a1.56,1.56,0,0,0-.2-.67L427.85,47a4.28,4.28,0,0,0-1.18-1.7,2.92,2.92,0,0,0-1.84-.51h-4.37v8.36l3.12.14v4.08Zm8.83-17.14h4.17q5.91,0,5.91-5.28,0-3-1.56-3.93a10.36,10.36,0,0,0-5-.91h-3.5Z"/><path class="cls-1" d="M441.67,57.39V53.5l1.59-.14c.93-.1,1.39-.55,1.39-1.35V29.69l-2.74-.14V25.47h13.73Q461,25.47,464,28t3,7.56a9.61,9.61,0,0,1-3.41,7.85,13.75,13.75,0,0,1-9,2.81h-4.08v7l4.6.14v4.08Zm8.84-15.84H454q7,0,7-5.71c0-2.31-.6-3.83-1.8-4.59s-3.11-1.12-5.74-1.12h-2.92Z"/><path class="cls-1" d="M492.41,51.77v-8.3H478.82v9.7l2.79.14v4.08H470V53.5l1.59-.14c.92-.1,1.39-.55,1.39-1.35V29.69l-2.74-.14V25.47h11.62v3.89l-1.59.14a2,2,0,0,0-1.1.41,1.61,1.61,0,0,0-.34,1.18v7.44h13.59V29.69l-2.74-.14V25.47h11.62v3.89l-1.59.14A1.39,1.39,0,0,0,498.31,31V53.17l2.74.14v4.08H489.43V53.5l1.59-.14a1.9,1.9,0,0,0,1.05-.41A1.57,1.57,0,0,0,492.41,51.77Z"/><path class="cls-1" d="M513.29,52V45.2l-8.16-15.51-2.26-.14V25.47h11.71v3.89l-1.44.14a1,1,0,0,0-1,.58,1.55,1.55,0,0,0,.17,1.29l4.08,8.36h.19l5.23-10-2.4-.19V25.47h10.32v3.89l-1.44.14c-.61.07-1.15.55-1.63,1.44L519.14,45.2v8l3.75.14v4.08H509.35V53.5l2.55-.14C512.82,53.29,513.29,52.85,513.29,52Z"/><path class="cls-1" d="M349.87,100.59h-3v-23h-8.14V74.89H358v2.66h-8.14Z"/><path class="cls-1" d="M381.39,100.59h-3V88.5H364.86v12.09h-3V74.89h3V85.82H378.4V74.89h3Z"/><path class="cls-1" d="M402.76,100.59H388.44V74.89h14.32v2.66H391.42v8.27h10.66v2.64H391.42v9.46h11.34Z"/><path class="cls-1" d="M411.44,89.9v10.69h-3V74.89h7.05q4.73,0,7,1.81a6.57,6.57,0,0,1,2.26,5.45q0,5.1-5.17,6.89l7,11.55H423L416.81,89.9Zm0-2.56h4.1a7,7,0,0,0,4.64-1.26,4.66,4.66,0,0,0,1.48-3.77,4.26,4.26,0,0,0-1.51-3.67,8.13,8.13,0,0,0-4.82-1.13h-3.89Z"/><path class="cls-1" d="M446.86,100.59l-3.19-8.17H433.36l-3.16,8.17h-3l10.16-25.8h2.51L450,100.59Zm-4.13-10.86-3-8c-.39-1-.79-2.24-1.2-3.7a33.65,33.65,0,0,1-1.11,3.7l-3,8Z"/><path class="cls-1" d="M469.79,82.38a7.19,7.19,0,0,1-2.67,6q-2.65,2.1-7.62,2.1h-3v10.11h-3V74.89h6.66Q469.79,74.89,469.79,82.38Zm-13.31,5.54h2.69c2.65,0,4.56-.43,5.75-1.29a4.72,4.72,0,0,0,1.77-4.11,4.43,4.43,0,0,0-1.67-3.8,8.72,8.72,0,0,0-5.2-1.24h-3.34Z"/><path class="cls-1" d="M481.7,87.74l6.86-12.85h3.23l-8.57,15.73v10h-3V90.76l-8.56-15.87h3.27Z"/></g></g></svg>